<?xml version="1.0" encoding="utf-8"?>
<!-- Generator: Adobe Illustrator 19.1.0, SVG Export Plug-In . SVG Version: 6.00 Build 0)  -->
<svg version="1.1" id="Layer_1" xmlns="http://www.w3.org/2000/svg" xmlns:xlink="http://www.w3.org/1999/xlink" x="0px" y="0px"
	 width="500px" height="24.1px" viewBox="-393.5 288.7 500 24.1" style="enable-background:new -393.5 288.7 500 24.1;"
	 xml:space="preserve" preserveAspectRatio="none">
<style type="text/css">
	.st0{opacity:0.15;fill:#212221;enable-background:new    ;}
</style>
<path class="st0" d="M104.6,288.7c-1.1,0-2,0.9-2,2v8.2H35.7v-8.2c0-1.1-0.9-2-2-2s-2,0.9-2,2v8.2h-66.9v-8.2c0-1.1-0.9-2-2-2
	s-2,0.9-2,2v8.2h-66.9v-8.2c0-1.1-0.9-2-2-2c-1.1,0-2,0.9-2,2v8.2h-66.9v-8.2c0-1.1-0.9-2-2-2s-2,0.9-2,2v8.2h-66.9v-8.2
	c0-1.1-0.9-2-2-2s-2,0.9-2,2v8.2h-66.9v-8.2c0-1.1-0.9-2-2-2c-1.1,0-2,0.9-2,2v8.2h-66.9v-8.2c0-1.1-0.9-2-2-2c-1.1,0-2,0.9-2,2v8.2
	v3.9v8.2c0,1.1,0.9,2,2,2c1.1,0,2-0.9,2-2v-8.2h66.9v8.2c0,1.1,0.9,2,2,2c1.1,0,2-0.9,2-2v-8.2h66.9v8.2c0,1.1,0.9,2,2,2s2-0.9,2-2
	v-8.2h66.9v8.2c0,1.1,0.9,2,2,2s2-0.9,2-2v-8.2h66.9v8.2c0,1.1,0.9,2,2,2c1.1,0,2-0.9,2-2v-8.2h66.9v8.2c0,1.1,0.9,2,2,2s2-0.9,2-2
	v-8.2h66.9v8.2c0,1.1,0.9,2,2,2s2-0.9,2-2v-8.2h66.9v8.2c0,1.1,0.9,2,2,2c1.1,0,2-0.9,2-2v-8.2v-3.9v-8.2
	C106.5,289.6,105.7,288.7,104.6,288.7z"/>
</svg>
