<?xml version="1.0" encoding="utf-8"?>
<!-- Generator: Adobe Illustrator 19.1.0, SVG Export Plug-In . SVG Version: 6.00 Build 0)  -->
<svg version="1.1" id="Layer_1" xmlns="http://www.w3.org/2000/svg" xmlns:xlink="http://www.w3.org/1999/xlink" x="0px" y="0px"
	 width="255.1px" height="12.5px" viewBox="0 0 255.1 12.5" style="enable-background:new 0 0 255.1 12.5;" xml:space="preserve">
<style type="text/css">
	.st0{opacity:0.15;fill:#212221;}
</style>
<path class="st0" d="M254.1,0c-0.6,0-1,0.4-1,1v4.3H227V1c0-0.6-0.4-1-1-1s-1,0.4-1,1v4.3h-26.1V1c0-0.6-0.4-1-1-1s-1,0.4-1,1v4.3
	h-26.1V1c0-0.6-0.4-1-1-1s-1,0.4-1,1v4.3h-26.1V1c0-0.6-0.4-1-1-1s-1,0.4-1,1v4.3h-26.1V1c0-0.6-0.4-1-1-1s-1,0.4-1,1v4.3H86.4V1
	c0-0.6-0.4-1-1-1s-1,0.4-1,1v4.3H58.3V1c0-0.6-0.4-1-1-1s-1,0.4-1,1v4.3H30.1V1c0-0.6-0.4-1-1-1s-1,0.4-1,1v4.3H2V1c0-0.6-0.4-1-1-1
	S0,0.4,0,1v10.5c0,0.6,0.4,1,1,1s1-0.4,1-1V7.3h26.1v4.3c0,0.6,0.4,1,1,1s1-0.4,1-1V7.3h26.1v4.3c0,0.6,0.4,1,1,1s1-0.4,1-1V7.3
	h26.1v4.3c0,0.6,0.4,1,1,1s1-0.4,1-1V7.3h26.1v4.3c0,0.6,0.4,1,1,1s1-0.4,1-1V7.3h26.1v4.3c0,0.6,0.4,1,1,1s1-0.4,1-1V7.3h26.1v4.3
	c0,0.6,0.4,1,1,1s1-0.4,1-1V7.3h26.1v4.3c0,0.6,0.4,1,1,1s1-0.4,1-1V7.3H225v4.3c0,0.6,0.4,1,1,1s1-0.4,1-1V7.3h26.1v4.3
	c0,0.6,0.4,1,1,1s1-0.4,1-1V1C255.1,0.4,254.7,0,254.1,0z"/>
</svg>
