<svg id="Layer_1" xmlns="http://www.w3.org/2000/svg" width="771.6" height="162.5" viewBox="0 0 771.6 162.5"><style>.st0{opacity:.9}.st1{fill:#fff}</style><g class="st0"><path class="st1" d="M63.8 48.4l-13.6 3.4c-.5 0-.9.5-1 1.1l-8.6 45.8-12.3 1.9 8.5-43.4c.1-.6-.2-1.1-.6-1.1l-13.9 4c-.5 0-.9.5-1.1 1.1l-21 100c-.1.7.1 1.3.6 1.3h14.3c.5 0 1-.6 1.1-1.3l9.3-47.1 12.5-1.9-9.3 49c-.1.7.2 1.3.7 1.3h14.3c.5 0 1-.6 1.1-1.3L64.4 49.5c.2-.6-.1-1.1-.6-1.1zM97.6 39s-7 1.6-12 2.8-7.7 3.1-11.3 7.3c-3.5 4.3-5.8 9.5-6.9 15.5l-13 73.2c-1.2 6.6-.7 12.3 1.5 17.1 2.2 4.8 5.4 7.3 9.5 7.3h14.3c4.2 0 8.1-2.5 11.8-7.4 3.6-4.8 5.9-10.6 6.9-17l11.4-73.3c.9-6 .7-12.8-1.4-17.1-2.1-4.1-6.9-8.4-10.8-8.4zm-2.9 25.7l-12 73.3c-.4 2.8-1.4 5.2-3 7.3-1.5 2-3.1 3-4.9 3-1.7 0-2.9-1-3.8-3-.9-2.1-1.1-4.5-.7-7.3l12.5-73.3c.4-2.7 1.6-6.3 3.1-8.1 1.5-1.8 2.9-2.7 4.5-2.7s2.9.9 3.7 2.7c.9 1.8 1 5.4.6 8.1zM139 148.3h-20.4L134.1 32c.1-.6-.2-1.1-.7-1.1l-13.9 3.2c-.5 0-.9.5-1 1.1l-17.7 126c-.1.7.2 1.3.7 1.3h35.9c.5 0 1-.6 1-1.3l1.4-11.6c.1-.8-.3-1.3-.8-1.3zM181.9 148.2h-20.4l12.4-124.6c.1-.6-.3-1.1-.7-1.1l-13.4 2.9c-.5 0-.9.5-1 1.1L144 161.1c-.1.7.3 1.3.8 1.3h35.9c.5 0 1-.6 1-1.3l1-11.6c.1-.7-.3-1.3-.8-1.3zM230 13.3l-13.4 1.6c-.5 0-.9.5-.9 1.1l-5.4 69.2c-.2 2.7-.9 4.9-2.3 6.8-1.3 1.9-2.8 2.8-4.5 2.8-1.6 0-2.9-.9-4-2.8s-1.5-4.2-1.3-6.8l5.8-66.9c0-.6-.3-1.1-.8-1.1l-13.6 2.2c-.5 0-1.1.5-1.1 1.1l-5.8 64.7c-1.1 13 2.9 20.7 12 22.8l-4 53c-.1.7.3 1.3.8 1.3h14.4c.5 0 .9-.6 1-1.3l3.6-53c9.3-2.1 14.4-9.9 15.2-22.9l5-70.8c.1-.5-.2-1-.7-1zM304.6 4.3l-13.5.9c-.5 0-.9.5-.9 1.1l-4.5 131.5c0 2.8-.7 5.2-2 7.3-1.3 2-2.7 3-4.4 3H273l5.7-140.5c0-.6-.4-1.1-.8-1.1l-13.4 1.2c-.5 0-.9.5-.9 1.1l-6.2 129c-.1 2.8-.8 5.2-2.1 7.3-1.3 2-2.8 3-4.5 3h-6.2l7.3-137c0-.6-.3-1.1-.8-1.1l-13.6 1.4c-.5 0-.9.5-.9 1.1L227.9 161c0 .7.3 1.3.8 1.3h18.6c3.5 0 6.7-.9 9.4-2.8l-.1 1.5c0 .7.4 1.3.9 1.3H276c7 0 13.2-4.1 18.2-12.2 4.9-8 7.4-17.5 7.5-28.3l3.7-116.4c.1-.6-.3-1.1-.8-1.1zM337.4 1l-13.5.8c-3.9 0-7.3 2.2-10.1 6.5s-4.2 9.5-4.2 15.6l-1.5 113.9c0 6.6 1.5 12.4 4.5 17.1 3 4.9 6.7 7.3 10.9 7.3h14.4c4.2 0 7.8-2.5 10.6-7.4 2.8-4.8 4.1-10.6 3.9-17.1l-.2-113.9c-.2-6-1.7-11.2-4.6-15.5C344.7 4 341.3 1 337.4 1zm-.5 22.8l-.4 113.9c.1 2.8-.5 5.3-1.7 7.3s-2.6 3-4.3 3c-1.7 0-3.1-1-4.4-3-1.3-2.1-1.9-4.5-2-7.3l.9-113.9c0-2.7.5-4.9 1.7-6.8 1.1-1.8 2.5-2.7 4.1-2.7 1.6 0 3 .9 4.2 2.7 1.3 1.9 1.9 4.1 1.9 6.8zM383.5 0H370c-3.9 0-7.2 2.2-9.9 6.5s-3.9 9.5-3.7 15.6l3.4 115.6c.2 6.6 1.9 12.4 5 17.2 3.2 4.9 6.9 7.3 11.1 7.3h14.4c4.2 0 7.7-2.5 10.4-7.4 2.6-4.8 3.8-10.6 3.4-17.1l-5-115.6c-.4-6-2.1-11.2-5.1-15.5-3.1-4.4-6.6-6.6-10.5-6.6zm.3 22l4.5 115.6c.1 2.8-.3 5.3-1.5 7.4-1.1 2-2.5 3-4.3 3-1.7 0-3.1-1-4.5-3-1.4-2.1-2.1-4.5-2.2-7.3l-4-115.6c-.1-2.7.4-4.9 1.5-6.8 1.1-1.8 2.4-2.7 4-2.7 1.7 0 3.1.9 4.3 2.7 1.3 1.8 2 4 2.2 6.7zM429.8 1.5l-27-.9c-.5 0-.8.5-.8 1.1l11.1 159.1c0 .7.5 1.3 1 1.3H443c4.2 0 7.6-2.5 10.1-7.4 2.5-4.8 3.4-10.6 2.8-17.1l-9.8-114.1c-.6-6-2.5-11.2-5.7-15.5-3.1-4.3-6.7-6.5-10.6-6.5zm-11.7 12.6h5.9c1.7 0 3.1.9 4.4 2.7 1.4 1.9 2.1 4.1 2.4 6.8l9.2 114.1c.2 2.8-.2 5.3-1.3 7.4-1.1 2-2.4 3-4.2 3h-6.2l-10.2-134zM494.9 6.1l-13.5-.9c-3.9 0-7.1 3.1-9.4 7.4-2.3 4.3-3.2 9.5-2.5 15.6L484 160.9c.1.7.5 1.3 1 1.3h14.5c.5 0 .8-.6.8-1.3l-8.2-73.1 12.3.7 8.5 72.4c.1.7.6 1.3 1.1 1.3h14.4c.5 0 .8-.6.7-1.3L512.3 28.1c-.8-6-3-11.2-6.3-15.5-3.5-4.3-7.2-6.5-11.1-6.5zm-4.4 68.3l-5.6-46.2c-.3-2.7 0-4.9 1-6.8 1-1.8 2.2-2.7 3.8-2.7 1.7 0 3.1.9 4.5 2.7 1.5 1.9 2.3 4.1 2.7 6.8l5.8 46.9-12.2-.7zM565.6 80.1l-20.9-1c-.5 0-.8.5-.7 1.2l1.7 12.1c.1.7.6 1.2 1.1 1.2h6.2l7 43.9c.9 6.8-.6 10.1-4.6 10.4-1.7 0-3.3-1-4.8-3-1.6-2-2.6-4.5-3-7.4l-14.5-103c-.4-2.7-.2-4.9.8-6.8.9-1.8 2.1-2.7 3.7-2.7h3.3c3.5 0 5.1 3.1 6.6 9.6.1.6.6 1 1 1h11.3c.2 0 .4-.1.6-.4.1-.2.2-.5.1-.8-3-14.7-9.4-21.3-18.3-22.3l-13.3-1.4c-4 0-7.2 4-9.3 8.4-2.1 4.3-2.8 9.5-1.9 15.5l13.9 103c.9 6.6 3.3 12.4 6.9 17.2 3.7 4.9 7.8 7.4 12 7.3H565c3.7 0 6.8-2.1 9.4-6.2 2.5-4.1 3.1-10.3 1.7-18.4l-9.3-56.2c-.3-.7-.7-1.2-1.2-1.2zM596.9 20.5l-34.8-5.4c-.5 0-.8.5-.7 1.1l24.3 144.6c.1.7.6 1.3 1.1 1.3H623c.5 0 .8-.6.7-1.3l-2.3-11.7c-.1-.7-.7-1.2-1.2-1.2h-20.6l-9.4-54.1 13.1 1.1c.5 0 .8-.5.7-1.2l-2.2-11.1c-.1-.6-.6-1.2-1.1-1.2l-12.9-1.1-8.2-49.5 20.1 3c.5 0 .8-.5.6-1.1L598 21.6c-.2-.6-.6-1.1-1.1-1.1zM672.6 91.5l-20.9-1c-.5 0-.8.5-.6 1.2l2.5 12.1c.1.7.7 1.2 1.2 1.2h6.2l7.6 32.4c1.4 6.8.1 10.1-3.9 10.5-1.7 0-3.3-1-5-3-1.7-2-2.9-4.5-3.6-7.4l-18.5-84.8c-.6-2.7-1.3-5.4-.5-7.3.8-1.8 1.9-2.7 3.5-2.7l4.1.4c3.5 0 5.3 3.1 7.3 9.6.2.6.7 1 1.1 1h11.3c.2 0 .4-.1.5-.4.1-.2.1-.5 0-.8-4.1-14.7-10.5-20.7-19.5-22.6-8.6-1.8-13.6-1.8-13.6-1.8-4 0-7.1 4.6-9 9-1.8 4.3-2.1 9.5-.8 15.5l17.9 84.8c1.4 6.6 4.2 12.4 8.2 17.2 4.1 4.9 8.3 7.4 12.5 7.4h14.5c3.7 0 6.7-2.1 9-6.2 2.2-4.1 2.4-10.3.4-18.4l-10.8-44.7c-.1-.7-.6-1.2-1.1-1.2zM694.2 41.2c-6.4-1.4-10.2-2.5-13.2-2.8-3-.4-6.8 2.2-8.6 6.5-1.8 4.3-2.1 12.8-.6 18.9l24.2 97c.2.7.7 1.3 1.2 1.3h14.5c.5 0 .8-.6.6-1.3l-14.7-56.3 12.6 1.1 14.8 55.2c.2.7.7 1.3 1.2 1.3h14.5c.5 0 .8-.6.6-1.3l-26.5-97c-1.7-6-4.5-11.2-8.5-15.5-4-4.5-5.7-5.8-12.1-7.1zm0 49.8l-6.9-27.3c-.7-2.7-.7-5 0-6.8.7-1.8 1.8-2.7 3.4-2.7 1.7 0 3.3.9 4.9 2.7 1.7 1.9 2.9 4.1 3.6 6.8l7.3 28.4-12.3-1.1zM757.6 61.3c-4.2-4.3-8.5-5.9-12-7.2-9.7-3.4-29.5-7.2-29.5-7.2-.5 0-.7.5-.5 1.1l31.5 112.6c.2.7.8 1.3 1.3 1.3h14.5c.5 0 .7-.6.5-1.3l-14.7-50.4 13.5.5c4.1 0 6.9-2.4 8.4-7s1.2-10-.7-16.1l-3.3-10.7c-1.8-6-4.8-11.2-9-15.6zm-22.3 3.2s4.4 1.1 6.7 1.8 4.2 1.7 6 3.5c1.8 1.9 2.4 4.4 3.2 7.1l3.2 10.7c.8 2.7.9 4.9.2 6.9-.6 1.9-1.8 2.8-3.5 2.8l-6.3-.5-9.5-32.3z"/></g></svg>