<?xml version="1.0" encoding="utf-8"?>
<!-- Generator: Adobe Illustrator 19.1.0, SVG Export Plug-In . SVG Version: 6.00 Build 0)  -->
<svg version="1.1" id="Layer_1" xmlns="http://www.w3.org/2000/svg" xmlns:xlink="http://www.w3.org/1999/xlink" x="0px" y="0px"
	 width="771.6px" height="162.5px" viewBox="0 0 771.6 162.5" style="enable-background:new 0 0 771.6 162.5;" xml:space="preserve"
	>
<style type="text/css">
	.st0{opacity:0.9;}
	.st1{fill:#FFFFFF;}
</style>
<g class="st0">
	<path class="st1" d="M63.8,48.4l-13.6,3.4c-0.5,0-0.9,0.5-1,1.1l-8.6,45.8l-12.3,1.9l8.5-43.4c0.1-0.6-0.2-1.1-0.6-1.1l-13.9,4
		c-0.5,0-0.9,0.5-1.1,1.1l-21,100c-0.1,0.7,0.1,1.3,0.6,1.3l14.3,0c0.5,0,1-0.6,1.1-1.3l9.3-47.1l12.5-1.9l-9.3,49
		c-0.1,0.7,0.2,1.3,0.7,1.3l14.3,0c0.5,0,1-0.6,1.1-1.3L64.4,49.5C64.6,48.9,64.3,48.4,63.8,48.4z"/>
	<path class="st1" d="M97.6,39c0,0-7,1.6-12,2.8s-7.7,3.1-11.3,7.3c-3.5,4.3-5.8,9.5-6.9,15.5l-13,73.2c-1.2,6.6-0.7,12.3,1.5,17.1
		c2.2,4.8,5.4,7.3,9.5,7.3l14.3,0c4.2,0,8.1-2.5,11.8-7.4c3.6-4.8,5.9-10.6,6.9-17l11.4-73.3c0.9-6,0.7-12.8-1.4-17.1
		C106.3,43.3,101.5,39,97.6,39z M94.7,64.7l-12,73.3c-0.4,2.8-1.4,5.2-3,7.3c-1.5,2-3.1,3-4.9,3c-1.7,0-2.9-1-3.8-3
		c-0.9-2.1-1.1-4.5-0.7-7.3l12.5-73.3c0.4-2.7,1.6-6.3,3.1-8.1c1.5-1.8,2.9-2.7,4.5-2.7c1.6,0,2.9,0.9,3.7,2.7
		C95,58.4,95.1,62,94.7,64.7z"/>
	<path class="st1" d="M139,148.3l-20.4,0L134.1,32c0.1-0.6-0.2-1.1-0.7-1.1l-13.9,3.2c-0.5,0-0.9,0.5-1,1.1l-17.7,126
		c-0.1,0.7,0.2,1.3,0.7,1.3l35.9,0c0.5,0,1-0.6,1-1.3l1.4-11.6C139.9,148.8,139.5,148.3,139,148.3z"/>
	<path class="st1" d="M181.9,148.2l-20.4,0l12.4-124.6c0.1-0.6-0.3-1.1-0.7-1.1l-13.4,2.9c-0.5,0-0.9,0.5-1,1.1L144,161.1
		c-0.1,0.7,0.3,1.3,0.8,1.3l35.9,0c0.5,0,1-0.6,1-1.3l1-11.6C182.8,148.8,182.4,148.2,181.9,148.2z"/>
	<path class="st1" d="M230,13.3l-13.4,1.6c-0.5,0-0.9,0.5-0.9,1.1l-5.4,69.2c-0.2,2.7-0.9,4.9-2.3,6.8c-1.3,1.9-2.8,2.8-4.5,2.8
		c-1.6,0-2.9-0.9-4-2.8c-1.1-1.9-1.5-4.2-1.3-6.8l5.8-66.9c0-0.6-0.3-1.1-0.8-1.1l-13.6,2.2c-0.5,0-1.1,0.5-1.1,1.1l-5.8,64.7
		c-1.1,13,2.9,20.7,12,22.8l-4,53c-0.1,0.7,0.3,1.3,0.8,1.3l14.4,0c0.5,0,0.9-0.6,1-1.3l3.6-53c9.3-2.1,14.4-9.9,15.2-22.9l5-70.8
		C230.8,13.8,230.5,13.3,230,13.3z"/>
	<path class="st1" d="M304.6,4.3l-13.5,0.9c-0.5,0-0.9,0.5-0.9,1.1l-4.5,131.5c0,2.8-0.7,5.2-2,7.3c-1.3,2-2.7,3-4.4,3l-6.3,0
		l5.7-140.5c0-0.6-0.4-1.1-0.8-1.1l-13.4,1.2c-0.5,0-0.9,0.5-0.9,1.1l-6.2,129c-0.1,2.8-0.8,5.2-2.1,7.3c-1.3,2-2.8,3-4.5,3l-6.2,0
		l7.3-137c0-0.6-0.3-1.1-0.8-1.1l-13.6,1.4c-0.5,0-0.9,0.5-0.9,1.1L227.9,161c0,0.7,0.3,1.3,0.8,1.3l18.6,0c3.5,0,6.7-0.9,9.4-2.8
		l-0.1,1.5c0,0.7,0.4,1.3,0.9,1.3l18.5,0c7,0,13.2-4.1,18.2-12.2c4.9-8,7.4-17.5,7.5-28.3l3.7-116.4C305.5,4.8,305.1,4.3,304.6,4.3z
		"/>
	<path class="st1" d="M337.4,1l-13.5,0.8c-3.9,0-7.3,2.2-10.1,6.5c-2.8,4.3-4.2,9.5-4.2,15.6l-1.5,113.9c0,6.6,1.5,12.4,4.5,17.1
		c3,4.9,6.7,7.3,10.9,7.3l14.4,0c4.2,0,7.8-2.5,10.6-7.4c2.8-4.8,4.1-10.6,3.9-17.1l-0.2-113.9c-0.2-6-1.7-11.2-4.6-15.5
		C344.7,4,341.3,1,337.4,1z M336.9,23.8l-0.4,113.9c0.1,2.8-0.5,5.3-1.7,7.3c-1.2,2-2.6,3-4.3,3c-1.7,0-3.1-1-4.4-3
		c-1.3-2.1-1.9-4.5-2-7.3L325,23.8c0-2.7,0.5-4.9,1.7-6.8c1.1-1.8,2.5-2.7,4.1-2.7c1.6,0,3,0.9,4.2,2.7
		C336.3,18.9,336.9,21.1,336.9,23.8z"/>
	<path class="st1" d="M383.5,0L370,0c-3.9,0-7.2,2.2-9.9,6.5c-2.7,4.3-3.9,9.5-3.7,15.6l3.4,115.6c0.2,6.6,1.9,12.4,5,17.2
		c3.2,4.9,6.9,7.3,11.1,7.3l14.4,0c4.2,0,7.7-2.5,10.4-7.4c2.6-4.8,3.8-10.6,3.4-17.1l-5-115.6c-0.4-6-2.1-11.2-5.1-15.5
		C390.9,2.2,387.4,0,383.5,0z M383.8,22l4.5,115.6c0.1,2.8-0.3,5.3-1.5,7.4c-1.1,2-2.5,3-4.3,3c-1.7,0-3.1-1-4.5-3
		c-1.4-2.1-2.1-4.5-2.2-7.3l-4-115.6c-0.1-2.7,0.4-4.9,1.5-6.8c1.1-1.8,2.4-2.7,4-2.7c1.7,0,3.1,0.9,4.3,2.7
		C382.9,17.1,383.6,19.3,383.8,22z"/>
	<path class="st1" d="M429.8,1.5l-27-0.9c-0.5,0-0.8,0.5-0.8,1.1l11.1,159.1c0,0.7,0.5,1.3,1,1.3l28.9,0c4.2,0,7.6-2.5,10.1-7.4
		c2.5-4.8,3.4-10.6,2.8-17.1l-9.8-114.1c-0.6-6-2.5-11.2-5.7-15.5C437.3,3.7,433.7,1.5,429.8,1.5z M418.1,14.1l5.9,0
		c1.7,0,3.1,0.9,4.4,2.7c1.4,1.9,2.1,4.1,2.4,6.8l9.2,114.1c0.2,2.8-0.2,5.3-1.3,7.4c-1.1,2-2.4,3-4.2,3l-6.2,0L418.1,14.1z"/>
	<path class="st1" d="M494.9,6.1l-13.5-0.9c-3.9,0-7.1,3.1-9.4,7.4c-2.3,4.3-3.2,9.5-2.5,15.6L484,160.9c0.1,0.7,0.5,1.3,1,1.3
		l14.5,0c0.5,0,0.8-0.6,0.8-1.3l-8.2-73.1l12.3,0.7l8.5,72.4c0.1,0.7,0.6,1.3,1.1,1.3l14.4,0c0.5,0,0.8-0.6,0.7-1.3L512.3,28.1
		c-0.8-6-3-11.2-6.3-15.5C502.5,8.3,498.8,6.1,494.9,6.1z M490.5,74.4l-5.6-46.2c-0.3-2.7,0-4.9,1-6.8c1-1.8,2.2-2.7,3.8-2.7
		c1.7,0,3.1,0.9,4.5,2.7c1.5,1.9,2.3,4.1,2.7,6.8l5.8,46.9L490.5,74.4z"/>
	<path class="st1" d="M565.6,80.1l-20.9-1c-0.5,0-0.8,0.5-0.7,1.2l1.7,12.1c0.1,0.7,0.6,1.2,1.1,1.2l6.2,0l7,43.9
		c0.9,6.8-0.6,10.1-4.6,10.4c-1.7,0-3.3-1-4.8-3c-1.6-2-2.6-4.5-3-7.4l-14.5-103c-0.4-2.7-0.2-4.9,0.8-6.8c0.9-1.8,2.1-2.7,3.7-2.7
		l3.3,0c3.5,0,5.1,3.1,6.6,9.6c0.1,0.6,0.6,1,1,1l11.3,0c0.2,0,0.4-0.1,0.6-0.4c0.1-0.2,0.2-0.5,0.1-0.8c-3-14.7-9.4-21.3-18.3-22.3
		c-5.7-0.6-13.3-1.4-13.3-1.4c-4,0-7.2,4-9.3,8.4c-2.1,4.3-2.8,9.5-1.9,15.5l13.9,103c0.9,6.6,3.3,12.4,6.9,17.2
		c3.7,4.9,7.8,7.4,12,7.3l14.5,0c3.7,0,6.8-2.1,9.4-6.2c2.5-4.1,3.1-10.3,1.7-18.4l-9.3-56.2C566.5,80.6,566.1,80.1,565.6,80.1z"/>
	<path class="st1" d="M596.9,20.5l-34.8-5.4c-0.5,0-0.8,0.5-0.7,1.1l24.3,144.6c0.1,0.7,0.6,1.3,1.1,1.3l36.2,0
		c0.5,0,0.8-0.6,0.7-1.3l-2.3-11.7c-0.1-0.7-0.7-1.2-1.2-1.2l-20.6,0l-9.4-54.1l13.1,1.1c0.5,0,0.8-0.5,0.7-1.2l-2.2-11.1
		c-0.1-0.6-0.6-1.2-1.1-1.2l-12.9-1.1l-8.2-49.5l20.1,3c0.5,0,0.8-0.5,0.6-1.1L598,21.6C597.8,21,597.4,20.5,596.9,20.5z"/>
	<path class="st1" d="M672.6,91.5l-20.9-1c-0.5,0-0.8,0.5-0.6,1.2l2.5,12.1c0.1,0.7,0.7,1.2,1.2,1.2l6.2,0l7.6,32.4
		c1.4,6.8,0.1,10.1-3.9,10.5c-1.7,0-3.3-1-5-3c-1.7-2-2.9-4.5-3.6-7.4l-18.5-84.8c-0.6-2.7-1.3-5.4-0.5-7.3c0.8-1.8,1.9-2.7,3.5-2.7
		l4.1,0.4c3.5,0,5.3,3.1,7.3,9.6c0.2,0.6,0.7,1,1.1,1l11.3,0c0.2,0,0.4-0.1,0.5-0.4c0.1-0.2,0.1-0.5,0-0.8
		c-4.1-14.7-10.5-20.7-19.5-22.6c-8.6-1.8-13.6-1.8-13.6-1.8c-4,0-7.1,4.6-9,9c-1.8,4.3-2.1,9.5-0.8,15.5l17.9,84.8
		c1.4,6.6,4.2,12.4,8.2,17.2c4.1,4.9,8.3,7.4,12.5,7.4l14.5,0c3.7,0,6.7-2.1,9-6.2c2.2-4.1,2.4-10.3,0.4-18.4l-10.8-44.7
		C673.6,92,673.1,91.5,672.6,91.5z"/>
	<path class="st1" d="M694.2,41.2c-6.4-1.4-10.2-2.5-13.2-2.8c-3-0.4-6.8,2.2-8.6,6.5c-1.8,4.3-2.1,12.8-0.6,18.9l24.2,97
		c0.2,0.7,0.7,1.3,1.2,1.3l14.5,0c0.5,0,0.8-0.6,0.6-1.3l-14.7-56.3l12.6,1.1l14.8,55.2c0.2,0.7,0.7,1.3,1.2,1.3l14.5,0
		c0.5,0,0.8-0.6,0.6-1.3l-26.5-97c-1.7-6-4.5-11.2-8.5-15.5C702.3,43.8,700.6,42.5,694.2,41.2z M694.2,91l-6.9-27.3
		c-0.7-2.7-0.7-5,0-6.8c0.7-1.8,1.8-2.7,3.4-2.7c1.7,0,3.3,0.9,4.9,2.7c1.7,1.9,2.9,4.1,3.6,6.8l7.3,28.4L694.2,91z"/>
	<path class="st1" d="M757.6,61.3c-4.2-4.3-8.5-5.9-12-7.2c-9.7-3.4-29.5-7.2-29.5-7.2c-0.5,0-0.7,0.5-0.5,1.1l31.5,112.6
		c0.2,0.7,0.8,1.3,1.3,1.3l14.5,0c0.5,0,0.7-0.6,0.5-1.3l-14.7-50.4l13.5,0.5c4.1,0,6.9-2.4,8.4-7c1.5-4.6,1.2-10-0.7-16.1
		l-3.3-10.7C764.8,70.9,761.8,65.7,757.6,61.3z M735.3,64.5c0,0,4.4,1.1,6.7,1.8s4.2,1.7,6,3.5c1.8,1.9,2.4,4.4,3.2,7.1l3.2,10.7
		c0.8,2.7,0.9,4.9,0.2,6.9c-0.6,1.9-1.8,2.8-3.5,2.8l-6.3-0.5L735.3,64.5z"/>
</g>
</svg>
