<svg xmlns="http://www.w3.org/2000/svg" viewBox="0 0 20 40"><path fill="#B5B6B6" d="M19.6 15.3L14.3 10l5.3-5.3c.6-.6.6-1.5 0-2.1L17.5.5c-.6-.6-1.5-.6-2.1 0L10 5.7 4.7.4c-.6-.6-1.5-.6-2.1 0L.4 2.6c-.6.6-.6 1.5 0 2.1L5.7 10 .4 15.3c-.6.6-.6 1.5 0 2.1l2.1 2.1c.6.6 1.5.6 2.1 0l5.3-5.3 5.3 5.3c.6.6 1.5.6 2.1 0l2.1-2.1c.7-.6.7-1.5.2-2.1z"/><path fill="#AC2829" d="M19.5 35.3l-5.4-5.4 5.4-5.2c.7-.7.7-1.5 0-2.1l-2.1-2.1c-.7-.7-1.5-.7-2.1 0l-5.4 5.2-5.2-5.2c-.7-.7-1.5-.7-2.1 0L.5 22.6c-.7.7-.7 1.5 0 2.1l5.4 5.4-5.4 5.2c-.7.7-.7 1.5 0 2.1l2.1 2.1c.7.7 1.5.7 2.1 0l5.4-5.4 5.2 5.4c.7.7 1.5.7 2.1 0l2.1-2.1c.5-.7.5-1.6 0-2.1z"/></svg>