<svg xmlns="http://www.w3.org/2000/svg" viewBox="0 0 128 112"><g fill="#FFF"><path d="M33.6 48.8c.3-.4.5-.8.8-1.3 2.5-4 5.3-8.4 8.5-12.7C33.9 24.3 21.4 16 0 16v16c17.4 0 26.2 6.8 33.6 16.8z"/><path d="M96 32v12c0 1.6.9 3 2.3 3.6.5.3 1.1.4 1.7.4.9 0 1.8-.3 2.6-.9l24-20c.9-.8 1.4-1.9 1.4-3.1s-.5-2.3-1.4-3.1l-24-20c-.8-.6-1.7-.9-2.6-.9-.6 0-1.2.1-1.7.4C96.9 1 96 2.4 96 4v12c-32.4 0-44.3 19-54.8 35.8C31.4 67.5 23.6 80 0 80v16c32.4 0 44.3-19 54.8-35.8C64.6 44.5 72.4 32 96 32z"/><path d="M102.6 64.9c-.7-.6-1.6-.9-2.6-.9-.6 0-1.2.1-1.7.4-1.4.6-2.3 2-2.3 3.6v12c-17.4 0-26.2-6.8-33.6-16.8-.3.4-.5.8-.8 1.3-2.5 4-5.3 8.4-8.5 12.7C62.1 87.7 74.6 96 96 96v12c0 1.6.9 3 2.3 3.6.5.3 1.1.4 1.7.4.9 0 1.8-.3 2.6-.9l24-20c.9-.8 1.4-1.9 1.4-3.1s-.5-2.3-1.4-3.1l-24-20z"/></g></svg>