<?xml version="1.0" encoding="utf-8"?>
<!-- Generator: Adobe Illustrator 19.1.0, SVG Export Plug-In . SVG Version: 6.00 Build 0)  -->
<svg version="1.1" id="Layer_1" xmlns="http://www.w3.org/2000/svg" xmlns:xlink="http://www.w3.org/1999/xlink" x="0px" y="0px"
	 width="19.8px" height="19.8px" viewBox="-739 441.2 19.8 19.8" style="enable-background:new -739 441.2 19.8 19.8;"
	 xml:space="preserve">
<style type="text/css">
	.st0{fill:#FFFFFF;}
</style>
<path class="st0" d="M-719.6,459.8l-0.9,0.9c-0.2,0.2-0.5,0.4-0.9,0.4c-0.3,0-0.6-0.1-0.9-0.4l-5.6-5.6c-1.1,0.7-2.4,1-3.8,1
	c-4-0.1-7.3-3.4-7.3-7.5s3.3-7.4,7.4-7.4c4.1,0,7.4,3.3,7.4,7.4c0,1.4-0.4,2.7-1,3.8l5.6,5.6C-719.1,458.5-719.1,459.3-719.6,459.8z
	 M-731.6,453.6c2.7,0,4.9-2.2,4.9-4.9s-2.2-4.9-4.9-4.9c-2.7,0-4.9,2.2-4.9,4.9S-734.3,453.6-731.6,453.6z"/>
</svg>
