<?xml version="1.0" encoding="utf-8"?>
<!-- Generator: Adobe Illustrator 19.1.0, SVG Export Plug-In . SVG Version: 6.00 Build 0)  -->
<svg version="1.1" id="Layer_1" xmlns="http://www.w3.org/2000/svg" xmlns:xlink="http://www.w3.org/1999/xlink" x="0px" y="0px"
	 width="100px" height="100px" viewBox="-699 401 100 100" style="enable-background:new -699 401 100 100;" xml:space="preserve">
<style type="text/css">
	.st0{fill:#212221;}
</style>
<path id="White_2_" class="st0" d="M-604.6,400.9h-88.9c-3.1,0-5.6,2.4-5.6,5.6v88.9c0,3.1,2.4,5.6,5.6,5.6h47.8v-38.7h-13.1v-15.1
	h13.1v-11.1c0-12.9,7.8-20,19.3-20c5.6,0,10.2,0.4,11.6,0.7v13.6h-8c-6.2,0-7.6,2.9-7.6,7.3v9.6h14.9l-2,15.1h-12.7v38.7h25.6
	c3.1,0,5.6-2.4,5.6-5.6v-88.9C-599,403.3-601.4,400.9-604.6,400.9z"/>
</svg>
