<svg id="Layer_1" xmlns="http://www.w3.org/2000/svg" width="31.1" height="25" viewBox="-733 438 31.1 25"><style>.st0{fill:#212221}</style><path class="st0" d="M-702 440.9c-1.1.5-2.3.8-3.6 1 1.3-.8 2.3-2 2.8-3.5-1.2.7-2.6 1.3-4 1.6-1.2-1.2-2.8-2-4.6-2-3.6 0-6.4 2.8-6.4 6.3 0 .5.1 1 .2 1.4-5.2-.3-9.9-2.8-13-6.6-.6.9-.8 2-.8 3.2 0 2.2 1.1 4.1 2.8 5.3-1.1-.1-2-.3-2.9-.8v.1c0 3.1 2.2 5.6 5.1 6.2-.6.2-1.1.2-1.7.2-.4 0-.8-.1-1.2-.1.8 2.5 3.2 4.3 5.9 4.4-2.2 1.7-4.9 2.7-7.9 2.7-.5 0-1-.1-1.5-.1 2.8 1.8 6.1 2.8 9.7 2.8 11.6 0 18-9.6 18-18v-.8c1.1-.9 2.2-2.1 3.1-3.3z"/></svg>