<?xml version="1.0" encoding="utf-8"?>
<!-- Generator: Adobe Illustrator 19.1.0, SVG Export Plug-In . SVG Version: 6.00 Build 0)  -->
<svg version="1.1" id="Layer_1" xmlns="http://www.w3.org/2000/svg" xmlns:xlink="http://www.w3.org/1999/xlink" x="0px" y="0px"
	 width="31.1px" height="25px" viewBox="-733 438 31.1 25" style="enable-background:new -733 438 31.1 25;" xml:space="preserve">
<style type="text/css">
	.st0{fill:#212221;}
</style>
<path class="st0" d="M-702,440.9c-1.1,0.5-2.3,0.8-3.6,1c1.3-0.8,2.3-2,2.8-3.5c-1.2,0.7-2.6,1.3-4,1.6c-1.2-1.2-2.8-2-4.6-2
	c-3.6,0-6.4,2.8-6.4,6.3c0,0.5,0.1,1,0.2,1.4c-5.2-0.3-9.9-2.8-13-6.6c-0.6,0.9-0.8,2-0.8,3.2c0,2.2,1.1,4.1,2.8,5.3
	c-1.1-0.1-2-0.3-2.9-0.8v0.1c0,3.1,2.2,5.6,5.1,6.2c-0.6,0.2-1.1,0.2-1.7,0.2c-0.4,0-0.8-0.1-1.2-0.1c0.8,2.5,3.2,4.3,5.9,4.4
	c-2.2,1.7-4.9,2.7-7.9,2.7c-0.5,0-1-0.1-1.5-0.1c2.8,1.8,6.1,2.8,9.7,2.8c11.6,0,18-9.6,18-18c0-0.3,0-0.6,0-0.8
	C-704,443.3-702.9,442.1-702,440.9z"/>
</svg>
